<?xml version="1.0" encoding="utf-8"?>
<!DOCTYPE svg PUBLIC "-//W3C//DTD SVG 1.1//EN" "http://www.w3.org/Graphics/SVG/1.1/DTD/svg11.dtd">
<svg version="1.1" id="Layer_1" xmlns="http://www.w3.org/2000/svg" width="500px" height="191px">
<path d="M66.387,105.99c0.006,0.012,0.013,0.022,0.019,0.036c-0.07,0.057-0.147,0.105-0.213,0.174L66.387,105.99z M70.039,104.263l-0.249,0.16c0.011,0.011,0.023,0.02,0.035,0.031C69.896,104.391,69.974,104.337,70.039,104.263z M19.643,98.018c-2.64,3.607-5.457,7.646-10.424,9.021c-4.564-3.384-2.686-7.5-1.296-11.132c1.35-3.531,3.545-6.74,5.371-10.091c3.335-6.12,6.671-12.242,10.093-18.521c-3.311-1.038-3.978,0.789-5.062,2.125c-4.658,5.743-7.615,12.449-11.165,18.846c-2.843,5.123-6.1,9.786-6.959,15.857c-0.608,4.293,0.03,7.605,3.704,9.909c4.153,2.603,6.32-1.295,9.143-3.054c5.772-3.598,8.431-10.192,13.343-14.565c4.209,5.261,3.646,10.744,2.735,16.365c-0.609,3.764,0.539,6.988,4.065,9.004c3.609,2.06,6.113-0.504,8.774-2.185c2.303-1.456,3.694-3.752,5.014-6.054c3.908-6.814,7.786-13.646,12.087-21.194c3.834,4.129,1.938,11.043,7.32,13.641c0.023,0.002,0.046,0.005,0.07,0.007c-0.016,0.012-0.036,0.018-0.051,0.029c4.918,9.941,12.274,12.184,21.169,6.544c8.979-5.692,14.429-14.427,20.146-22.972c3.181-4.752,5.587-10.207,10.91-13.446c2.098,3.289,0.484,5.893-0.479,8.573c-2.766,7.705-5.603,15.387-8.201,23.148c-2.247,6.713,1.675,12.34,7.641,10.915c5.177-1.233,8.929-4.594,11.46-9.406c-4.484,1.055-8.026,4.801-14.048,3.229c5.42-17.525,6.833-35.771,14.633-53.035c-5.451-0.093-7.386,2.555-8.636,5.488c-1.451,3.407-3.935,6.042-5.83,9.101c-6.011,9.701-13.079,18.599-20.707,27.047c-8.252,9.142-17.304,10.253-24.64,3.242c-0.025,0.022-0.058,0.029-0.083,0.052c0.016-0.027,0.033-0.055,0.049-0.083c-2.407-7.222-0.312-15.714-5.435-22.243c-5.251,1.252-7.402,4.569-9.287,8.381c-2.724,5.505-5.516,10.998-8.675,16.261c-2.477,4.127-4.791,8.817-10.631,9.365c-1.886-3.269-1.866-6.4-1.552-9.636c0.624-6.424,1.154-12.819,3.688-18.905c0.797-1.916,0.271-4.394-2.244-4.993c-2.635-0.629-4.448,0.91-5.489,3.23c0,0-1.82,2.1-4.956,5.716C22.074,95.216,19.643,98.018,19.643,98.018z M499.648,39.591c-7.507,4.032-8.6,11.89-13.578,17.859C496.897,58.215,501.347,52.038,499.648,39.591z M497.456,106.975c-4.792,4.599-10.635,7.554-17.272,7.842c-7.975,0.346-13.055-5.534-12.017-13.775c0.803-6.388,2.456-12.665,3.504-19.028c0.695-4.221,1.898-8.663-1.729-12.28c-4.05,0.64-5.344,3.797-7.055,6.463c-4.937,7.707-8.176,16.235-11.796,24.577c-0.815,1.88-1.177,4.218-2.53,5.552c-2.606,2.576-5.18,6.35-9.536,5.07c-4.217-1.236-3.889-5.517-4.175-8.925c-0.551-6.56,1.192-13.193-0.132-20.728c-9.145,5.645-13.31,13.914-17.092,22.414c-1.805,4.051-3.429,8.036-8.586,8.178c-3.201-2.951-1.496-5.643-0.493-8.344c9.795-26.385,19.578-52.776,29.365-79.166c2.113-5.693,4.879-11.326,1.698-17.801c-6.376-0.043-10.782,3.407-14.375,7.655c-9.671,11.434-19.076,23.093-28.502,34.732c-3.549,4.383-4.589,9.322-2.726,14.827c1.507,4.446,3.012,8.921,4.074,13.485c3.702,15.935-2.478,29.25-16.855,36.795c-8.808,4.624-17.466-0.17-18.049-10.102c-0.097-1.654,1.194-3.404-0.36-4.954c-0.61-0.606-1.296-1.138-2.334-2.037c-4.356,2.537-7.2,6.484-9.952,10.532c-2.684,3.944-5.666,8.387-10.896,7.642c-6.104-0.869-8.977-5.768-10.167-11.638c-0.637-3.13-1.268-6.302-3.372-9.556c-12.529,4.529-13.813,20.995-26.464,25.525c-7.871-7.004-6.429-18.088-11.807-26.22c-5.472,2.177-8.468,6.263-11.883,9.806c-2.44,2.535-4.576,5.392-7.173,7.748c-9.555,8.678-14.247,9.506-22.175-1.08c-3.336-0.058-4.579,3.31-7.193,4.528c-5.22,2.434-10.189,2.749-14.91-0.964c-4.748-3.733-4.229-8.667-2.79-13.661c1.968-6.825,6.107-12.315,12.533-15.05c5.754-2.448,12.097-5.046,18.118,0.259c1.182,1.041,3.222-1.461,4.596,0.062c2.129,3.862-0.7,6.372-1.962,9.173c-1.921,4.266-2.288,8.537-0.209,12.755c2.433,4.931,5.694,5.431,9.509,1.302c5.583-6.044,11.258-11.978,17.748-17.052c6.078-4.753,10.576-3.424,13.689,3.687c2.444,5.584,1.827,12.214,6.054,17.804c4.235-3.635,6.713-8.228,9.605-12.438c2.521-3.671,5.24-6.978,9.09-9.423c7.094-4.504,11.235-3.129,13.576,5.083c0.88,3.081,1.104,6.346,1.852,9.475c0.412,1.725,1.495,3.185,3.942,4.739c9.883-3.388,10.695-17.997,22.074-20.155c4.952,2.622,5.4,7.435,6.441,12.001c1.772,7.768,4.505,9.161,11.915,6.3c7.607-2.939,13.007-11.057,13.186-19.125c0.195-8.654-0.431-16.913-5.961-24.214c-3.373-4.456-3.113-8.543,0.998-13.298c9.387-10.863,17.821-22.54,26.947-33.635c4.089-4.967,8.95-9.293,13.384-13.982c3.106-3.283,7.284-3.764,11.308-4.116c3.304-0.288,5.087,1.724,5.771,5.272c1.861,9.67,0.044,18.745-4.262,27.271c-9.276,18.376-15.025,38.011-22.082,58.938c5.473-3.608,6.914-8.51,10.066-11.916c3.705-4,5.639-3.66,8.468,1.244l0.651,0.345l-0.433-0.596c2.662,2.823,2.694,6.149,2.543,9.844c-0.205,5.031-1.802,10.322,0.622,15.056c3.456,0.331,4.179-1.825,4.998-3.598c3.443-7.458,6.802-14.956,10.146-22.46c2.549-5.72,5.509-10.981,11.56-13.875c5.853-2.798,9.929-1.03,10.189,5.64c0.226,5.781-0.317,11.786-2.777,17.217c-1.777,3.924-1.922,8.014-1.908,12.091c0.027,7.74,4.19,10.259,11.683,7.561c3.929-1.417,7.13-3.907,10.031-6.542C498.553,102.881,499.937,104.592,497.456,106.975z M245.604,87.754c-10.063-4.644-18.557,5.979-19.531,15.975c0.327,2.787,1.111,6.147,4.294,7.626c2.778,1.291,5.669,0.259,8.256-1.563c4.991-3.521,7.852-8.536,10.477-13.847C251.23,91.631,249.418,89.512,245.604,87.754z M438.316,80.796c-0.253,1.149-0.98-0.153-0.093,0.584c0.34,0.284,0.565-0.149-0.126-0.333L438.316,80.796z M215.862,106.308c-3.116,11.397-9.391,21.377-14.459,31.889c-4.206,8.719-9.026,17.137-13.357,25.799c-2.381,4.76-3.827,9.898-3.833,15.271c-0.005,5.335,3.137,7.786,8.462,7.351c6.265-0.513,10.535-4.82,15.957-7.37c-3.332,6.308-8.87,9.892-15.555,11.281c-9.29,1.929-16.611-7.109-13.525-17.085c1.623-5.245,3.406-10.532,6.262-15.437c8.555-14.696,14.396-30.807,23.338-45.326c1.009-1.64,1.169-3.798,1.73-5.744c-2.672-1.696-3.568,0.419-5.082,1.696c-5.894,4.967-11.977,9.633-20.47,6.141c-2.985-1.228-4.971,1.348-7.165,2.386c-6.729,3.186-13.263,5.763-21.063,4.2c-5.789-1.158-10.321-3.596-14.219-7.966c-3.957-4.435-6.018-10.219-11.915-13.437c-4.184-2.284-3.195-5.66,1.45-10.59c3.586,0.16,5.052,3.822,8.579,5.092c7.711-4.727,10.834-13.843,17.377-20.611c0.571,7.603-3.847,14.806-15.396,26.056c1.778,17.337,18.556,22.609,36.743,10.953c-5.77-15.16,0.778-28.265,8.256-41.085c2.994-5.134,7.215-9.304,12.284-12.444c8.159-5.054,16.208-0.771,16.628,8.768c0.226,5.104-0.889,9.808-3.612,14.265c-5.552,9.087-12.776,16.774-19.822,24.638c-1.505,1.679-3.723,2.951-4.079,6.483c10.539,0.027,16.863-8.117,24.153-12.652C217.648,101.156,216.555,103.775,215.862,106.308z M196.584,95.729c7.175-7.764,13.54-16.236,15.663-27.06c0.623-3.165,0.104-6.129-2.485-7.889c-2.929-1.994-6.172-1.217-9.005,0.807c-0.708,0.505-1.266,1.221-1.888,1.845c-9.065,9.069-12.634,20.892-15.9,32.728c-0.866,3.133-0.851,7.041,2.198,10.063C190.494,104.378,193.149,99.446,196.584,95.729z"/>
</svg>
